<?xml version="1.0" encoding="utf-8"?>
<svg width="32" height="32" viewBox="0 0 40 32" fill="none" xmlns="http://www.w3.org/2000/svg">
    <path d="M15.8857 0C19.038 0 22.0612 1.25224 24.2902 3.48124C26.5192 5.71025 27.7714 8.73343 27.7714 11.8857C27.7714 14.8297 26.6926 17.536 24.9189 19.6206L25.4126 20.1143H26.8571L36 29.2571L33.2571 32L24.1143 22.8571V21.4126L23.6206 20.9189C21.536 22.6926 18.8297 23.7714 15.8857 23.7714C12.7334 23.7714 9.71025 22.5192 7.48124 20.2902C5.25224 18.0612 4 15.038 4 11.8857C4 8.73343 5.25224 5.71025 7.48124 3.48124C9.71025 1.25224 12.7334 0 15.8857 0ZM15.8857 3.65714C11.3143 3.65714 7.65714 7.31429 7.65714 11.8857C7.65714 16.4571 11.3143 20.1143 15.8857 20.1143C20.4571 20.1143 24.1143 16.4571 24.1143 11.8857C24.1143 7.31429 20.4571 3.65714 15.8857 3.65714Z" fill="#FAEBD7"/>
</svg>
